<?xml version="1.0" encoding="UTF-8"?>
<svg width="366px" height="79px" viewBox="0 0 366 79" version="1.1" xmlns="http://www.w3.org/2000/svg" xmlns:xlink="http://www.w3.org/1999/xlink">
    <title>logo-text-rect-white</title>
    <g id="logo-text-rect-white" stroke="none" stroke-width="1" fill="none" fill-rule="evenodd">
        <path d="M330.632646,70.1003773 C328.049754,70.1003773 326,71.9693444 326,74.5501886 C326,77.1310329 328.049754,79 330.632646,79 C339.541223,79 345.154254,72.7701095 349.075018,64.0498087 L365.643285,26.6735576 C365.821256,26.2291175 366,25.6053556 366,24.8053634 C366,22.1356312 363.86126,20 361.189384,20 C358.517507,20 357.179634,21.8681942 356.735482,23.0252843 L346.936279,47.7639784 L337.137076,23.0252843 C336.691376,21.8681942 335.353503,20 332.681626,20 C330.00975,20 327.87101,22.1356312 327.87101,24.8053634 C327.87101,25.6053556 328.049754,26.2291175 328.227725,26.6735576 L341.946145,58.2643583 C339.006538,65.5624509 336.334662,70.1003773 330.632646,70.1003773 Z M311.030055,19 C305.060498,19 301.317625,21.7996059 299.624973,24.4203131 C299.624973,21.7101566 297.485746,19.5421882 294.813261,19.5421882 C292.139227,19.5421882 290,21.7101566 290,24.4203131 L290,57.3031276 C290,60.0124995 292.050221,62 294.813261,62 C297.574752,62 299.624973,60.0124995 299.624973,57.3031276 L299.624973,37.1574213 C299.624973,31.8273421 301.853205,27.8523412 308.535581,27.8523412 C314.327127,27.8523412 316.376575,31.3761724 316.376575,36.5249991 L316.376575,57.3031276 C316.376575,60.0124995 318.337017,62 321.188287,62 C323.860773,62 326,60.0124995 326,57.3031276 L326,34.7179665 C326,26.8589832 323.148729,19 311.030055,19 Z M269.028508,19 C263.05895,19 259.316077,21.7996059 257.623425,24.4203131 C257.623425,21.7101566 255.485746,19.5421882 252.811713,19.5421882 C250.139227,19.5421882 248,21.7101566 248,24.4203131 L248,57.3031276 C248,60.0124995 250.050221,62 252.811713,62 C255.574752,62 257.623425,60.0124995 257.623425,57.3031276 L257.623425,37.1574213 C257.623425,31.8273421 259.851658,27.8523412 266.534807,27.8523412 C272.325579,27.8523412 274.375027,31.3761724 274.375027,36.5249991 L274.375027,57.3031276 C274.375027,60.0124995 276.336243,62 279.186739,62 C281.860773,62 284,60.0124995 284,57.3031276 L284,34.7179665 C284,26.8589832 281.147181,19 269.028508,19 Z M223.177802,54 C218.334758,54 216,51.8550607 216,48.3133603 C216,44.957085 218.074839,43 221.880464,43 L232,43 L232,45.6089069 C232,50.8307692 227.76243,54 223.177802,54 Z M225.180578,27.581675 C230.400938,27.581675 233.370711,30.2636426 233.370711,34.286594 L233.370711,35.8954639 L221.580735,35.8954639 C213.749414,35.8954639 207,40.1863014 207,48.5008668 C207,56.5467695 212.85043,62 221.670633,62 C227.07079,62 231.030227,60.6590162 233.46061,56.8146556 C233.46061,59.4073278 235.621298,61.5527466 238.230696,61.5527466 C240.840094,61.5527466 243,59.4073278 243,56.8146556 L243,33.9294124 C243,24.4532305 236.340485,19 225.180578,19 C217.439937,19 212.940328,21.9498537 210.420047,24.7211167 C209.61018,25.6148471 209.250586,26.6879447 209.250586,27.6717469 C209.250586,29.9957564 211.140797,31.8725126 213.479719,31.8725126 C214.560844,31.8725126 215.27925,31.6046264 216.180578,30.9787822 C218.431165,29.3699122 221.22036,27.581675 225.180578,27.581675 Z M196.888543,0 C194.108122,0 191.777864,2.33931295 191.777864,5.12882446 L191.777864,40.7632903 L165.235359,2.15954617 C164.338926,0.809732115 162.904323,0 161.111457,0 C158.330258,0 156,2.33931295 156,5.12882446 L156,56.8703939 C156,59.660687 158.330258,62 161.111457,62 C163.890321,62 166.222136,59.660687 166.222136,56.8703939 L166.222136,21.4164765 L192.673518,59.7505704 C193.57073,61.1003845 195.185243,62 196.888543,62 C199.668185,62 202,59.660687 202,56.8703939 L202,5.12882446 C202,2.33931295 199.668185,0 196.888543,0 Z M133.181017,19.3505307 L131.091726,19.3505307 C128.818457,19.3505307 127,21.1538194 127,23.407343 C127,25.6616496 128.818457,27.4641552 131.091726,27.4641552 L133.181017,27.4641552 L133.181017,48.7402993 C133.181017,55.8610579 138.180786,61 146.272644,61 C148.635927,61 150.545188,59.1066643 150.545188,56.7630938 C150.545188,54.4195232 148.635927,52.5261876 146.272644,52.5261876 C144.635006,52.5261876 142.818128,51.3540108 142.818128,49.2805812 L142.818128,27.4641552 L146.908274,27.4641552 C149.181543,27.4641552 151,25.6616496 151,23.407343 C151,21.1538194 149.181543,19.3505307 146.908274,19.3505307 L142.818128,19.3505307 L142.818128,11.7779711 C142.818128,9.16425961 140.636453,7 137.999177,7 C135.363481,7 133.181017,9.16425961 133.181017,11.7779711 L133.181017,19.3505307 Z M109.029412,19 C103.059598,19 99.3165635,21.7996059 97.623839,24.4203131 C97.623839,21.7101566 95.4845201,19.5421882 92.8119195,19.5421882 C90.1377709,19.5421882 88,21.7101566 88,24.4203131 L88,57.3031276 C88,60.0124995 90.0503096,62 92.8119195,62 C95.5743034,62 97.623839,60.0124995 97.623839,57.3031276 L97.623839,37.1574213 C97.623839,31.8273421 99.8521672,27.8523412 106.535604,27.8523412 C112.326625,27.8523412 114.376935,31.3761724 114.376935,36.5249991 L114.376935,57.3031276 C114.376935,60.0124995 116.337461,62 119.18808,62 C121.860681,62 124,60.0124995 124,57.3031276 L124,34.7179665 C124,26.8589832 121.149381,19 109.029412,19 Z M77.457416,14 C81.0389147,14 83,11.9536089 83,8.62813089 C83,4.7056962 81.0389147,3 77.457416,3 C73.9618259,3 72,4.7056962 72,8.62813089 C72,11.9536089 73.9618259,14 77.457416,14 Z M82,23.8255253 C82,21.1445917 80.0000804,19 77.5,19 C74.9991958,19 73,21.1445917 73,23.8255253 L73,56.1744747 C73,58.8554083 74.9991958,61 77.5,61 C80.0000804,61 82,58.8554083 82,56.1744747 L82,23.8255253 Z M55.7085231,24.2170717 C55.7085231,21.5643754 53.5513338,19.442372 50.8546519,19.442372 C48.1571893,19.442372 46,21.5643754 46,24.2170717 L46,56.2253003 C46,58.8779966 48.1571893,61 50.8546519,61 C53.5513338,61 55.7085231,58.8779966 55.7085231,56.2253003 L55.7085231,37.8338362 C55.7085231,31.90943 59.2140534,28.0187065 65.4162655,28.0187065 C67.9333767,28.0187065 70,25.9850239 70,23.5089692 C70,21.0336826 67.9333767,19 65.4162655,19 C61.6405986,19 57.4160052,21.2103242 55.7085231,24.6586757 L55.7085231,24.2170717 Z M21.1209784,10 C26.5918828,10 30,13.1037138 30,18.9561013 C30,24.7191511 26.6814676,28 21.1209784,28 L10,28 L10,10 L21.1209784,10 Z M22.2414041,37.8152008 C32.8713786,37.8152008 41,31.7240702 41,19.3628641 C41,6.82193511 32.6929322,1 22.2414041,1 L5.18037657,1 C2.32213076,1 0,3.32861844 0,6.19484975 L0,56.8043722 C0,59.6713816 2.32213076,62 5.18037657,62 C8.03862239,62 10.361529,59.6713816 10.361529,56.8043722 L10.361529,37.8152008 L22.2414041,37.8152008 L22.2414041,37.8152008 Z" id="Fill-64" fill="#FFFFFF"></path>
    </g>
</svg>